solid OpenSCAD_Model
  facet normal -1 0 0
    outer loop
      vertex 7.2 1 1
      vertex 7.2 6.2 2
      vertex 7.2 6.2 1
    endloop
  endfacet
  facet normal -1 -0 0
    outer loop
      vertex 7.2 6.2 2
      vertex 7.2 1 1
      vertex 7.2 1 2
    endloop
  endfacet
  facet normal -0 0 1
    outer loop
      vertex 1 6.2 1
      vertex 7.2 1 1
      vertex 7.2 6.2 1
    endloop
  endfacet
  facet normal 0 0 1
    outer loop
      vertex 7.2 1 1
      vertex 1 6.2 1
      vertex 1 1 1
    endloop
  endfacet
  facet normal 1 -0 0
    outer loop
      vertex 1 1 2
      vertex 1 6.2 1
      vertex 1 6.2 2
    endloop
  endfacet
  facet normal 1 0 0
    outer loop
      vertex 1 6.2 1
      vertex 1 1 2
      vertex 1 1 1
    endloop
  endfacet
  facet normal 0 -1 0
    outer loop
      vertex 1 6.2 1
      vertex 7.2 6.2 2
      vertex 1 6.2 2
    endloop
  endfacet
  facet normal 0 -1 -0
    outer loop
      vertex 7.2 6.2 2
      vertex 1 6.2 1
      vertex 7.2 6.2 1
    endloop
  endfacet
  facet normal 0 1 -0
    outer loop
      vertex 7.2 1 1
      vertex 1 1 2
      vertex 7.2 1 2
    endloop
  endfacet
  facet normal 0 1 0
    outer loop
      vertex 1 1 2
      vertex 7.2 1 1
      vertex 1 1 1
    endloop
  endfacet
  facet normal -1 0 0
    outer loop
      vertex 14.4 1 1
      vertex 14.4 6.2 2
      vertex 14.4 6.2 1
    endloop
  endfacet
  facet normal -1 -0 0
    outer loop
      vertex 14.4 6.2 2
      vertex 14.4 1 1
      vertex 14.4 1 2
    endloop
  endfacet
  facet normal -0 0 1
    outer loop
      vertex 8.2 6.2 1
      vertex 14.4 1 1
      vertex 14.4 6.2 1
    endloop
  endfacet
  facet normal 0 0 1
    outer loop
      vertex 14.4 1 1
      vertex 8.2 6.2 1
      vertex 8.2 1 1
    endloop
  endfacet
  facet normal 1 -0 0
    outer loop
      vertex 8.2 1 2
      vertex 8.2 6.2 1
      vertex 8.2 6.2 2
    endloop
  endfacet
  facet normal 1 0 0
    outer loop
      vertex 8.2 6.2 1
      vertex 8.2 1 2
      vertex 8.2 1 1
    endloop
  endfacet
  facet normal 0 -1 0
    outer loop
      vertex 8.2 6.2 1
      vertex 14.4 6.2 2
      vertex 8.2 6.2 2
    endloop
  endfacet
  facet normal 0 -1 -0
    outer loop
      vertex 14.4 6.2 2
      vertex 8.2 6.2 1
      vertex 14.4 6.2 1
    endloop
  endfacet
  facet normal 0 1 -0
    outer loop
      vertex 14.4 1 1
      vertex 8.2 1 2
      vertex 14.4 1 2
    endloop
  endfacet
  facet normal 0 1 0
    outer loop
      vertex 8.2 1 2
      vertex 14.4 1 1
      vertex 8.2 1 1
    endloop
  endfacet
  facet normal -1 0 0
    outer loop
      vertex 21.6 1 1
      vertex 21.6 6.2 2
      vertex 21.6 6.2 1
    endloop
  endfacet
  facet normal -1 -0 0
    outer loop
      vertex 21.6 6.2 2
      vertex 21.6 1 1
      vertex 21.6 1 2
    endloop
  endfacet
  facet normal -0 0 1
    outer loop
      vertex 15.4 6.2 1
      vertex 21.6 1 1
      vertex 21.6 6.2 1
    endloop
  endfacet
  facet normal 0 0 1
    outer loop
      vertex 21.6 1 1
      vertex 15.4 6.2 1
      vertex 15.4 1 1
    endloop
  endfacet
  facet normal 1 -0 0
    outer loop
      vertex 15.4 1 2
      vertex 15.4 6.2 1
      vertex 15.4 6.2 2
    endloop
  endfacet
  facet normal 1 0 0
    outer loop
      vertex 15.4 6.2 1
      vertex 15.4 1 2
      vertex 15.4 1 1
    endloop
  endfacet
  facet normal 0 -1 0
    outer loop
      vertex 15.4 6.2 1
      vertex 21.6 6.2 2
      vertex 15.4 6.2 2
    endloop
  endfacet
  facet normal 0 -1 -0
    outer loop
      vertex 21.6 6.2 2
      vertex 15.4 6.2 1
      vertex 21.6 6.2 1
    endloop
  endfacet
  facet normal 0 1 -0
    outer loop
      vertex 21.6 1 1
      vertex 15.4 1 2
      vertex 21.6 1 2
    endloop
  endfacet
  facet normal 0 1 0
    outer loop
      vertex 15.4 1 2
      vertex 21.6 1 1
      vertex 15.4 1 1
    endloop
  endfacet
  facet normal -1 0 0
    outer loop
      vertex 28.8 1 1
      vertex 28.8 6.2 2
      vertex 28.8 6.2 1
    endloop
  endfacet
  facet normal -1 -0 0
    outer loop
      vertex 28.8 6.2 2
      vertex 28.8 1 1
      vertex 28.8 1 2
    endloop
  endfacet
  facet normal -0 0 1
    outer loop
      vertex 22.6 6.2 1
      vertex 28.8 1 1
      vertex 28.8 6.2 1
    endloop
  endfacet
  facet normal 0 0 1
    outer loop
      vertex 28.8 1 1
      vertex 22.6 6.2 1
      vertex 22.6 1 1
    endloop
  endfacet
  facet normal 1 -0 0
    outer loop
      vertex 22.6 1 2
      vertex 22.6 6.2 1
      vertex 22.6 6.2 2
    endloop
  endfacet
  facet normal 1 0 0
    outer loop
      vertex 22.6 6.2 1
      vertex 22.6 1 2
      vertex 22.6 1 1
    endloop
  endfacet
  facet normal 0 -1 0
    outer loop
      vertex 22.6 6.2 1
      vertex 28.8 6.2 2
      vertex 22.6 6.2 2
    endloop
  endfacet
  facet normal 0 -1 -0
    outer loop
      vertex 28.8 6.2 2
      vertex 22.6 6.2 1
      vertex 28.8 6.2 1
    endloop
  endfacet
  facet normal 0 1 -0
    outer loop
      vertex 28.8 1 1
      vertex 22.6 1 2
      vertex 28.8 1 2
    endloop
  endfacet
  facet normal 0 1 0
    outer loop
      vertex 22.6 1 2
      vertex 28.8 1 1
      vertex 22.6 1 1
    endloop
  endfacet
  facet normal -1 0 0
    outer loop
      vertex 7.2 7.2 1
      vertex 7.2 12.4 2
      vertex 7.2 12.4 1
    endloop
  endfacet
  facet normal -1 -0 0
    outer loop
      vertex 7.2 12.4 2
      vertex 7.2 7.2 1
      vertex 7.2 7.2 2
    endloop
  endfacet
  facet normal -0 0 1
    outer loop
      vertex 1 12.4 1
      vertex 7.2 7.2 1
      vertex 7.2 12.4 1
    endloop
  endfacet
  facet normal 0 0 1
    outer loop
      vertex 7.2 7.2 1
      vertex 1 12.4 1
      vertex 1 7.2 1
    endloop
  endfacet
  facet normal 1 -0 0
    outer loop
      vertex 1 7.2 2
      vertex 1 12.4 1
      vertex 1 12.4 2
    endloop
  endfacet
  facet normal 1 0 0
    outer loop
      vertex 1 12.4 1
      vertex 1 7.2 2
      vertex 1 7.2 1
    endloop
  endfacet
  facet normal 0 -1 0
    outer loop
      vertex 1 12.4 1
      vertex 7.2 12.4 2
      vertex 1 12.4 2
    endloop
  endfacet
  facet normal 0 -1 -0
    outer loop
      vertex 7.2 12.4 2
      vertex 1 12.4 1
      vertex 7.2 12.4 1
    endloop
  endfacet
  facet normal 0 1 -0
    outer loop
      vertex 7.2 7.2 1
      vertex 1 7.2 2
      vertex 7.2 7.2 2
    endloop
  endfacet
  facet normal 0 1 0
    outer loop
      vertex 1 7.2 2
      vertex 7.2 7.2 1
      vertex 1 7.2 1
    endloop
  endfacet
  facet normal -1 0 0
    outer loop
      vertex 14.4 7.2 1
      vertex 14.4 12.4 2
      vertex 14.4 12.4 1
    endloop
  endfacet
  facet normal -1 -0 0
    outer loop
      vertex 14.4 12.4 2
      vertex 14.4 7.2 1
      vertex 14.4 7.2 2
    endloop
  endfacet
  facet normal -0 0 1
    outer loop
      vertex 8.2 12.4 1
      vertex 14.4 7.2 1
      vertex 14.4 12.4 1
    endloop
  endfacet
  facet normal 0 0 1
    outer loop
      vertex 14.4 7.2 1
      vertex 8.2 12.4 1
      vertex 8.2 7.2 1
    endloop
  endfacet
  facet normal 1 -0 0
    outer loop
      vertex 8.2 7.2 2
      vertex 8.2 12.4 1
      vertex 8.2 12.4 2
    endloop
  endfacet
  facet normal 1 0 0
    outer loop
      vertex 8.2 12.4 1
      vertex 8.2 7.2 2
      vertex 8.2 7.2 1
    endloop
  endfacet
  facet normal 0 -1 0
    outer loop
      vertex 8.2 12.4 1
      vertex 14.4 12.4 2
      vertex 8.2 12.4 2
    endloop
  endfacet
  facet normal 0 -1 -0
    outer loop
      vertex 14.4 12.4 2
      vertex 8.2 12.4 1
      vertex 14.4 12.4 1
    endloop
  endfacet
  facet normal 0 1 -0
    outer loop
      vertex 14.4 7.2 1
      vertex 8.2 7.2 2
      vertex 14.4 7.2 2
    endloop
  endfacet
  facet normal 0 1 0
    outer loop
      vertex 8.2 7.2 2
      vertex 14.4 7.2 1
      vertex 8.2 7.2 1
    endloop
  endfacet
  facet normal -1 0 0
    outer loop
      vertex 21.6 7.2 1
      vertex 21.6 12.4 2
      vertex 21.6 12.4 1
    endloop
  endfacet
  facet normal -1 -0 0
    outer loop
      vertex 21.6 12.4 2
      vertex 21.6 7.2 1
      vertex 21.6 7.2 2
    endloop
  endfacet
  facet normal -0 0 1
    outer loop
      vertex 15.4 12.4 1
      vertex 21.6 7.2 1
      vertex 21.6 12.4 1
    endloop
  endfacet
  facet normal 0 0 1
    outer loop
      vertex 21.6 7.2 1
      vertex 15.4 12.4 1
      vertex 15.4 7.2 1
    endloop
  endfacet
  facet normal 1 -0 0
    outer loop
      vertex 15.4 7.2 2
      vertex 15.4 12.4 1
      vertex 15.4 12.4 2
    endloop
  endfacet
  facet normal 1 0 0
    outer loop
      vertex 15.4 12.4 1
      vertex 15.4 7.2 2
      vertex 15.4 7.2 1
    endloop
  endfacet
  facet normal 0 -1 0
    outer loop
      vertex 15.4 12.4 1
      vertex 21.6 12.4 2
      vertex 15.4 12.4 2
    endloop
  endfacet
  facet normal 0 -1 -0
    outer loop
      vertex 21.6 12.4 2
      vertex 15.4 12.4 1
      vertex 21.6 12.4 1
    endloop
  endfacet
  facet normal 0 1 -0
    outer loop
      vertex 21.6 7.2 1
      vertex 15.4 7.2 2
      vertex 21.6 7.2 2
    endloop
  endfacet
  facet normal 0 1 0
    outer loop
      vertex 15.4 7.2 2
      vertex 21.6 7.2 1
      vertex 15.4 7.2 1
    endloop
  endfacet
  facet normal -1 0 0
    outer loop
      vertex 28.8 7.2 1
      vertex 28.8 12.4 2
      vertex 28.8 12.4 1
    endloop
  endfacet
  facet normal -1 -0 0
    outer loop
      vertex 28.8 12.4 2
      vertex 28.8 7.2 1
      vertex 28.8 7.2 2
    endloop
  endfacet
  facet normal -0 0 1
    outer loop
      vertex 22.6 12.4 1
      vertex 28.8 7.2 1
      vertex 28.8 12.4 1
    endloop
  endfacet
  facet normal 0 0 1
    outer loop
      vertex 28.8 7.2 1
      vertex 22.6 12.4 1
      vertex 22.6 7.2 1
    endloop
  endfacet
  facet normal 1 -0 0
    outer loop
      vertex 22.6 7.2 2
      vertex 22.6 12.4 1
      vertex 22.6 12.4 2
    endloop
  endfacet
  facet normal 1 0 0
    outer loop
      vertex 22.6 12.4 1
      vertex 22.6 7.2 2
      vertex 22.6 7.2 1
    endloop
  endfacet
  facet normal 0 -1 0
    outer loop
      vertex 22.6 12.4 1
      vertex 28.8 12.4 2
      vertex 22.6 12.4 2
    endloop
  endfacet
  facet normal 0 -1 -0
    outer loop
      vertex 28.8 12.4 2
      vertex 22.6 12.4 1
      vertex 28.8 12.4 1
    endloop
  endfacet
  facet normal 0 1 -0
    outer loop
      vertex 28.8 7.2 1
      vertex 22.6 7.2 2
      vertex 28.8 7.2 2
    endloop
  endfacet
  facet normal 0 1 0
    outer loop
      vertex 22.6 7.2 2
      vertex 28.8 7.2 1
      vertex 22.6 7.2 1
    endloop
  endfacet
  facet normal -1 0 0
    outer loop
      vertex 7.2 13.4 1
      vertex 7.2 18.6 2
      vertex 7.2 18.6 1
    endloop
  endfacet
  facet normal -1 -0 0
    outer loop
      vertex 7.2 18.6 2
      vertex 7.2 13.4 1
      vertex 7.2 13.4 2
    endloop
  endfacet
  facet normal -0 0 1
    outer loop
      vertex 1 18.6 1
      vertex 7.2 13.4 1
      vertex 7.2 18.6 1
    endloop
  endfacet
  facet normal 0 0 1
    outer loop
      vertex 7.2 13.4 1
      vertex 1 18.6 1
      vertex 1 13.4 1
    endloop
  endfacet
  facet normal 1 -0 0
    outer loop
      vertex 1 13.4 2
      vertex 1 18.6 1
      vertex 1 18.6 2
    endloop
  endfacet
  facet normal 1 0 0
    outer loop
      vertex 1 18.6 1
      vertex 1 13.4 2
      vertex 1 13.4 1
    endloop
  endfacet
  facet normal 0 -1 0
    outer loop
      vertex 1 18.6 1
      vertex 7.2 18.6 2
      vertex 1 18.6 2
    endloop
  endfacet
  facet normal 0 -1 -0
    outer loop
      vertex 7.2 18.6 2
      vertex 1 18.6 1
      vertex 7.2 18.6 1
    endloop
  endfacet
  facet normal 0 1 -0
    outer loop
      vertex 7.2 13.4 1
      vertex 1 13.4 2
      vertex 7.2 13.4 2
    endloop
  endfacet
  facet normal 0 1 0
    outer loop
      vertex 1 13.4 2
      vertex 7.2 13.4 1
      vertex 1 13.4 1
    endloop
  endfacet
  facet normal -1 0 0
    outer loop
      vertex 14.4 13.4 1
      vertex 14.4 18.6 2
      vertex 14.4 18.6 1
    endloop
  endfacet
  facet normal -1 -0 0
    outer loop
      vertex 14.4 18.6 2
      vertex 14.4 13.4 1
      vertex 14.4 13.4 2
    endloop
  endfacet
  facet normal -0 0 1
    outer loop
      vertex 8.2 18.6 1
      vertex 14.4 13.4 1
      vertex 14.4 18.6 1
    endloop
  endfacet
  facet normal 0 0 1
    outer loop
      vertex 14.4 13.4 1
      vertex 8.2 18.6 1
      vertex 8.2 13.4 1
    endloop
  endfacet
  facet normal 1 -0 0
    outer loop
      vertex 8.2 13.4 2
      vertex 8.2 18.6 1
      vertex 8.2 18.6 2
    endloop
  endfacet
  facet normal 1 0 0
    outer loop
      vertex 8.2 18.6 1
      vertex 8.2 13.4 2
      vertex 8.2 13.4 1
    endloop
  endfacet
  facet normal 0 -1 0
    outer loop
      vertex 8.2 18.6 1
      vertex 14.4 18.6 2
      vertex 8.2 18.6 2
    endloop
  endfacet
  facet normal 0 -1 -0
    outer loop
      vertex 14.4 18.6 2
      vertex 8.2 18.6 1
      vertex 14.4 18.6 1
    endloop
  endfacet
  facet normal 0 1 -0
    outer loop
      vertex 14.4 13.4 1
      vertex 8.2 13.4 2
      vertex 14.4 13.4 2
    endloop
  endfacet
  facet normal 0 1 0
    outer loop
      vertex 8.2 13.4 2
      vertex 14.4 13.4 1
      vertex 8.2 13.4 1
    endloop
  endfacet
  facet normal -1 0 0
    outer loop
      vertex 21.6 13.4 1
      vertex 21.6 18.6 2
      vertex 21.6 18.6 1
    endloop
  endfacet
  facet normal -1 -0 0
    outer loop
      vertex 21.6 18.6 2
      vertex 21.6 13.4 1
      vertex 21.6 13.4 2
    endloop
  endfacet
  facet normal -0 0 1
    outer loop
      vertex 15.4 18.6 1
      vertex 21.6 13.4 1
      vertex 21.6 18.6 1
    endloop
  endfacet
  facet normal 0 0 1
    outer loop
      vertex 21.6 13.4 1
      vertex 15.4 18.6 1
      vertex 15.4 13.4 1
    endloop
  endfacet
  facet normal 1 -0 0
    outer loop
      vertex 15.4 13.4 2
      vertex 15.4 18.6 1
      vertex 15.4 18.6 2
    endloop
  endfacet
  facet normal 1 0 0
    outer loop
      vertex 15.4 18.6 1
      vertex 15.4 13.4 2
      vertex 15.4 13.4 1
    endloop
  endfacet
  facet normal 0 -1 0
    outer loop
      vertex 15.4 18.6 1
      vertex 21.6 18.6 2
      vertex 15.4 18.6 2
    endloop
  endfacet
  facet normal 0 -1 -0
    outer loop
      vertex 21.6 18.6 2
      vertex 15.4 18.6 1
      vertex 21.6 18.6 1
    endloop
  endfacet
  facet normal 0 1 -0
    outer loop
      vertex 21.6 13.4 1
      vertex 15.4 13.4 2
      vertex 21.6 13.4 2
    endloop
  endfacet
  facet normal 0 1 0
    outer loop
      vertex 15.4 13.4 2
      vertex 21.6 13.4 1
      vertex 15.4 13.4 1
    endloop
  endfacet
  facet normal -1 0 0
    outer loop
      vertex 28.8 13.4 1
      vertex 28.8 18.6 2
      vertex 28.8 18.6 1
    endloop
  endfacet
  facet normal -1 -0 0
    outer loop
      vertex 28.8 18.6 2
      vertex 28.8 13.4 1
      vertex 28.8 13.4 2
    endloop
  endfacet
  facet normal -0 0 1
    outer loop
      vertex 22.6 18.6 1
      vertex 28.8 13.4 1
      vertex 28.8 18.6 1
    endloop
  endfacet
  facet normal 0 0 1
    outer loop
      vertex 28.8 13.4 1
      vertex 22.6 18.6 1
      vertex 22.6 13.4 1
    endloop
  endfacet
  facet normal 1 -0 0
    outer loop
      vertex 22.6 13.4 2
      vertex 22.6 18.6 1
      vertex 22.6 18.6 2
    endloop
  endfacet
  facet normal 1 0 0
    outer loop
      vertex 22.6 18.6 1
      vertex 22.6 13.4 2
      vertex 22.6 13.4 1
    endloop
  endfacet
  facet normal 0 -1 0
    outer loop
      vertex 22.6 18.6 1
      vertex 28.8 18.6 2
      vertex 22.6 18.6 2
    endloop
  endfacet
  facet normal 0 -1 -0
    outer loop
      vertex 28.8 18.6 2
      vertex 22.6 18.6 1
      vertex 28.8 18.6 1
    endloop
  endfacet
  facet normal 0 1 -0
    outer loop
      vertex 28.8 13.4 1
      vertex 22.6 13.4 2
      vertex 28.8 13.4 2
    endloop
  endfacet
  facet normal 0 1 0
    outer loop
      vertex 22.6 13.4 2
      vertex 28.8 13.4 1
      vertex 22.6 13.4 1
    endloop
  endfacet
  facet normal -1 0 0
    outer loop
      vertex 7.2 19.6 1
      vertex 7.2 24.8 2
      vertex 7.2 24.8 1
    endloop
  endfacet
  facet normal -1 -0 0
    outer loop
      vertex 7.2 24.8 2
      vertex 7.2 19.6 1
      vertex 7.2 19.6 2
    endloop
  endfacet
  facet normal -0 0 1
    outer loop
      vertex 1 24.8 1
      vertex 7.2 19.6 1
      vertex 7.2 24.8 1
    endloop
  endfacet
  facet normal 0 0 1
    outer loop
      vertex 7.2 19.6 1
      vertex 1 24.8 1
      vertex 1 19.6 1
    endloop
  endfacet
  facet normal 1 -0 0
    outer loop
      vertex 1 19.6 2
      vertex 1 24.8 1
      vertex 1 24.8 2
    endloop
  endfacet
  facet normal 1 0 0
    outer loop
      vertex 1 24.8 1
      vertex 1 19.6 2
      vertex 1 19.6 1
    endloop
  endfacet
  facet normal 0 -1 0
    outer loop
      vertex 1 24.8 1
      vertex 7.2 24.8 2
      vertex 1 24.8 2
    endloop
  endfacet
  facet normal 0 -1 -0
    outer loop
      vertex 7.2 24.8 2
      vertex 1 24.8 1
      vertex 7.2 24.8 1
    endloop
  endfacet
  facet normal 0 1 -0
    outer loop
      vertex 7.2 19.6 1
      vertex 1 19.6 2
      vertex 7.2 19.6 2
    endloop
  endfacet
  facet normal 0 1 0
    outer loop
      vertex 1 19.6 2
      vertex 7.2 19.6 1
      vertex 1 19.6 1
    endloop
  endfacet
  facet normal -1 0 0
    outer loop
      vertex 14.4 19.6 1
      vertex 14.4 24.8 2
      vertex 14.4 24.8 1
    endloop
  endfacet
  facet normal -1 -0 0
    outer loop
      vertex 14.4 24.8 2
      vertex 14.4 19.6 1
      vertex 14.4 19.6 2
    endloop
  endfacet
  facet normal -0 0 1
    outer loop
      vertex 8.2 24.8 1
      vertex 14.4 19.6 1
      vertex 14.4 24.8 1
    endloop
  endfacet
  facet normal 0 0 1
    outer loop
      vertex 14.4 19.6 1
      vertex 8.2 24.8 1
      vertex 8.2 19.6 1
    endloop
  endfacet
  facet normal 1 -0 0
    outer loop
      vertex 8.2 19.6 2
      vertex 8.2 24.8 1
      vertex 8.2 24.8 2
    endloop
  endfacet
  facet normal 1 0 0
    outer loop
      vertex 8.2 24.8 1
      vertex 8.2 19.6 2
      vertex 8.2 19.6 1
    endloop
  endfacet
  facet normal 0 -1 0
    outer loop
      vertex 8.2 24.8 1
      vertex 14.4 24.8 2
      vertex 8.2 24.8 2
    endloop
  endfacet
  facet normal 0 -1 -0
    outer loop
      vertex 14.4 24.8 2
      vertex 8.2 24.8 1
      vertex 14.4 24.8 1
    endloop
  endfacet
  facet normal 0 1 -0
    outer loop
      vertex 14.4 19.6 1
      vertex 8.2 19.6 2
      vertex 14.4 19.6 2
    endloop
  endfacet
  facet normal 0 1 0
    outer loop
      vertex 8.2 19.6 2
      vertex 14.4 19.6 1
      vertex 8.2 19.6 1
    endloop
  endfacet
  facet normal -1 0 0
    outer loop
      vertex 21.6 19.6 1
      vertex 21.6 24.8 2
      vertex 21.6 24.8 1
    endloop
  endfacet
  facet normal -1 -0 0
    outer loop
      vertex 21.6 24.8 2
      vertex 21.6 19.6 1
      vertex 21.6 19.6 2
    endloop
  endfacet
  facet normal -0 0 1
    outer loop
      vertex 15.4 24.8 1
      vertex 21.6 19.6 1
      vertex 21.6 24.8 1
    endloop
  endfacet
  facet normal 0 0 1
    outer loop
      vertex 21.6 19.6 1
      vertex 15.4 24.8 1
      vertex 15.4 19.6 1
    endloop
  endfacet
  facet normal 1 -0 0
    outer loop
      vertex 15.4 19.6 2
      vertex 15.4 24.8 1
      vertex 15.4 24.8 2
    endloop
  endfacet
  facet normal 1 0 0
    outer loop
      vertex 15.4 24.8 1
      vertex 15.4 19.6 2
      vertex 15.4 19.6 1
    endloop
  endfacet
  facet normal 0 -1 0
    outer loop
      vertex 15.4 24.8 1
      vertex 21.6 24.8 2
      vertex 15.4 24.8 2
    endloop
  endfacet
  facet normal 0 -1 -0
    outer loop
      vertex 21.6 24.8 2
      vertex 15.4 24.8 1
      vertex 21.6 24.8 1
    endloop
  endfacet
  facet normal 0 1 -0
    outer loop
      vertex 21.6 19.6 1
      vertex 15.4 19.6 2
      vertex 21.6 19.6 2
    endloop
  endfacet
  facet normal 0 1 0
    outer loop
      vertex 15.4 19.6 2
      vertex 21.6 19.6 1
      vertex 15.4 19.6 1
    endloop
  endfacet
  facet normal -1 0 0
    outer loop
      vertex 28.8 19.6 1
      vertex 28.8 24.8 2
      vertex 28.8 24.8 1
    endloop
  endfacet
  facet normal -1 -0 0
    outer loop
      vertex 28.8 24.8 2
      vertex 28.8 19.6 1
      vertex 28.8 19.6 2
    endloop
  endfacet
  facet normal -0 0 1
    outer loop
      vertex 22.6 24.8 1
      vertex 28.8 19.6 1
      vertex 28.8 24.8 1
    endloop
  endfacet
  facet normal 0 0 1
    outer loop
      vertex 28.8 19.6 1
      vertex 22.6 24.8 1
      vertex 22.6 19.6 1
    endloop
  endfacet
  facet normal 1 -0 0
    outer loop
      vertex 22.6 19.6 2
      vertex 22.6 24.8 1
      vertex 22.6 24.8 2
    endloop
  endfacet
  facet normal 1 0 0
    outer loop
      vertex 22.6 24.8 1
      vertex 22.6 19.6 2
      vertex 22.6 19.6 1
    endloop
  endfacet
  facet normal 0 -1 0
    outer loop
      vertex 22.6 24.8 1
      vertex 28.8 24.8 2
      vertex 22.6 24.8 2
    endloop
  endfacet
  facet normal 0 -1 -0
    outer loop
      vertex 28.8 24.8 2
      vertex 22.6 24.8 1
      vertex 28.8 24.8 1
    endloop
  endfacet
  facet normal 0 1 -0
    outer loop
      vertex 28.8 19.6 1
      vertex 22.6 19.6 2
      vertex 28.8 19.6 2
    endloop
  endfacet
  facet normal 0 1 0
    outer loop
      vertex 22.6 19.6 2
      vertex 28.8 19.6 1
      vertex 22.6 19.6 1
    endloop
  endfacet
  facet normal 1 -0 0
    outer loop
      vertex 29.8 0 2
      vertex 29.8 25.8 0
      vertex 29.8 25.8 2
    endloop
  endfacet
  facet normal 1 0 0
    outer loop
      vertex 29.8 25.8 0
      vertex 29.8 0 2
      vertex 29.8 0 0
    endloop
  endfacet
  facet normal -0 0 1
    outer loop
      vertex 1 7.2 2
      vertex 7.2 6.2 2
      vertex 7.2 7.2 2
    endloop
  endfacet
  facet normal 0 0 1
    outer loop
      vertex 7.2 6.2 2
      vertex 1 7.2 2
      vertex 1 6.2 2
    endloop
  endfacet
  facet normal -0 0 1
    outer loop
      vertex 1 13.4 2
      vertex 7.2 12.4 2
      vertex 7.2 13.4 2
    endloop
  endfacet
  facet normal 0 0 1
    outer loop
      vertex 7.2 12.4 2
      vertex 1 13.4 2
      vertex 1 12.4 2
    endloop
  endfacet
  facet normal -0 0 1
    outer loop
      vertex 1 19.6 2
      vertex 7.2 18.6 2
      vertex 7.2 19.6 2
    endloop
  endfacet
  facet normal 0 0 1
    outer loop
      vertex 7.2 18.6 2
      vertex 1 19.6 2
      vertex 1 18.6 2
    endloop
  endfacet
  facet normal -0 0 1
    outer loop
      vertex 8.2 7.2 2
      vertex 14.4 6.2 2
      vertex 14.4 7.2 2
    endloop
  endfacet
  facet normal 0 0 1
    outer loop
      vertex 14.4 6.2 2
      vertex 8.2 7.2 2
      vertex 8.2 6.2 2
    endloop
  endfacet
  facet normal -0 0 1
    outer loop
      vertex 8.2 13.4 2
      vertex 14.4 12.4 2
      vertex 14.4 13.4 2
    endloop
  endfacet
  facet normal 0 0 1
    outer loop
      vertex 14.4 12.4 2
      vertex 8.2 13.4 2
      vertex 8.2 12.4 2
    endloop
  endfacet
  facet normal -0 0 1
    outer loop
      vertex 8.2 19.6 2
      vertex 14.4 18.6 2
      vertex 14.4 19.6 2
    endloop
  endfacet
  facet normal 0 0 1
    outer loop
      vertex 14.4 18.6 2
      vertex 8.2 19.6 2
      vertex 8.2 18.6 2
    endloop
  endfacet
  facet normal -0 0 1
    outer loop
      vertex 15.4 7.2 2
      vertex 21.6 6.2 2
      vertex 21.6 7.2 2
    endloop
  endfacet
  facet normal 0 0 1
    outer loop
      vertex 21.6 6.2 2
      vertex 15.4 7.2 2
      vertex 15.4 6.2 2
    endloop
  endfacet
  facet normal -0 0 1
    outer loop
      vertex 15.4 13.4 2
      vertex 21.6 12.4 2
      vertex 21.6 13.4 2
    endloop
  endfacet
  facet normal 0 0 1
    outer loop
      vertex 21.6 12.4 2
      vertex 15.4 13.4 2
      vertex 15.4 12.4 2
    endloop
  endfacet
  facet normal -0 0 1
    outer loop
      vertex 15.4 19.6 2
      vertex 21.6 18.6 2
      vertex 21.6 19.6 2
    endloop
  endfacet
  facet normal 0 0 1
    outer loop
      vertex 21.6 18.6 2
      vertex 15.4 19.6 2
      vertex 15.4 18.6 2
    endloop
  endfacet
  facet normal -0 0 1
    outer loop
      vertex 22.6 7.2 2
      vertex 28.8 6.2 2
      vertex 28.8 7.2 2
    endloop
  endfacet
  facet normal 0 0 1
    outer loop
      vertex 28.8 6.2 2
      vertex 22.6 7.2 2
      vertex 22.6 6.2 2
    endloop
  endfacet
  facet normal -0 0 1
    outer loop
      vertex 22.6 13.4 2
      vertex 28.8 12.4 2
      vertex 28.8 13.4 2
    endloop
  endfacet
  facet normal 0 0 1
    outer loop
      vertex 28.8 12.4 2
      vertex 22.6 13.4 2
      vertex 22.6 12.4 2
    endloop
  endfacet
  facet normal -0 0 1
    outer loop
      vertex 22.6 19.6 2
      vertex 28.8 18.6 2
      vertex 28.8 19.6 2
    endloop
  endfacet
  facet normal 0 0 1
    outer loop
      vertex 28.8 18.6 2
      vertex 22.6 19.6 2
      vertex 22.6 18.6 2
    endloop
  endfacet
  facet normal 0 0 1
    outer loop
      vertex 28.8 19.6 2
      vertex 29.8 25.8 2
      vertex 28.8 24.8 2
    endloop
  endfacet
  facet normal 0 0 1
    outer loop
      vertex 29.8 25.8 2
      vertex 22.6 24.8 2
      vertex 28.8 24.8 2
    endloop
  endfacet
  facet normal 0 0 1
    outer loop
      vertex 21.6 19.6 2
      vertex 22.6 19.6 2
      vertex 22.6 24.8 2
    endloop
  endfacet
  facet normal 0 0 1
    outer loop
      vertex 22.6 19.6 2
      vertex 21.6 19.6 2
      vertex 22.6 18.6 2
    endloop
  endfacet
  facet normal 0 0 1
    outer loop
      vertex 22.6 18.6 2
      vertex 21.6 18.6 2
      vertex 22.6 13.4 2
    endloop
  endfacet
  facet normal 0 0 1
    outer loop
      vertex 21.6 13.4 2
      vertex 22.6 13.4 2
      vertex 21.6 18.6 2
    endloop
  endfacet
  facet normal 0 0 1
    outer loop
      vertex 21.6 12.4 2
      vertex 22.6 12.4 2
      vertex 21.6 13.4 2
    endloop
  endfacet
  facet normal 0 0 1
    outer loop
      vertex 22.6 12.4 2
      vertex 21.6 12.4 2
      vertex 22.6 7.2 2
    endloop
  endfacet
  facet normal 0 0 1
    outer loop
      vertex 21.6 19.6 2
      vertex 22.6 24.8 2
      vertex 21.6 24.8 2
    endloop
  endfacet
  facet normal 0 0 1
    outer loop
      vertex 29.8 25.8 2
      vertex 21.6 24.8 2
      vertex 22.6 24.8 2
    endloop
  endfacet
  facet normal 0 0 1
    outer loop
      vertex 29.8 25.8 2
      vertex 15.4 24.8 2
      vertex 21.6 24.8 2
    endloop
  endfacet
  facet normal 0 0 1
    outer loop
      vertex 14.4 19.6 2
      vertex 15.4 19.6 2
      vertex 15.4 24.8 2
    endloop
  endfacet
  facet normal 0 0 1
    outer loop
      vertex 15.4 19.6 2
      vertex 14.4 19.6 2
      vertex 15.4 18.6 2
    endloop
  endfacet
  facet normal 0 0 1
    outer loop
      vertex 15.4 18.6 2
      vertex 14.4 18.6 2
      vertex 15.4 13.4 2
    endloop
  endfacet
  facet normal 0 0 1
    outer loop
      vertex 14.4 13.4 2
      vertex 15.4 13.4 2
      vertex 14.4 18.6 2
    endloop
  endfacet
  facet normal 0 0 1
    outer loop
      vertex 14.4 12.4 2
      vertex 15.4 12.4 2
      vertex 14.4 13.4 2
    endloop
  endfacet
  facet normal 0 0 1
    outer loop
      vertex 15.4 12.4 2
      vertex 14.4 12.4 2
      vertex 15.4 7.2 2
    endloop
  endfacet
  facet normal 0 0 1
    outer loop
      vertex 14.4 19.6 2
      vertex 15.4 24.8 2
      vertex 14.4 24.8 2
    endloop
  endfacet
  facet normal 0 0 1
    outer loop
      vertex 29.8 25.8 2
      vertex 14.4 24.8 2
      vertex 15.4 24.8 2
    endloop
  endfacet
  facet normal -0 0 1
    outer loop
      vertex 0 25.8 2
      vertex 14.4 24.8 2
      vertex 29.8 25.8 2
    endloop
  endfacet
  facet normal 0 0 1
    outer loop
      vertex 7.2 19.6 2
      vertex 8.2 19.6 2
      vertex 8.2 24.8 2
    endloop
  endfacet
  facet normal 0 0 1
    outer loop
      vertex 8.2 19.6 2
      vertex 7.2 19.6 2
      vertex 8.2 18.6 2
    endloop
  endfacet
  facet normal 0 0 1
    outer loop
      vertex 8.2 18.6 2
      vertex 7.2 18.6 2
      vertex 8.2 13.4 2
    endloop
  endfacet
  facet normal 0 0 1
    outer loop
      vertex 7.2 13.4 2
      vertex 8.2 13.4 2
      vertex 7.2 18.6 2
    endloop
  endfacet
  facet normal 0 0 1
    outer loop
      vertex 7.2 12.4 2
      vertex 8.2 12.4 2
      vertex 7.2 13.4 2
    endloop
  endfacet
  facet normal 0 0 1
    outer loop
      vertex 8.2 12.4 2
      vertex 7.2 12.4 2
      vertex 8.2 7.2 2
    endloop
  endfacet
  facet normal 0 0 1
    outer loop
      vertex 7.2 19.6 2
      vertex 8.2 24.8 2
      vertex 7.2 24.8 2
    endloop
  endfacet
  facet normal 0 0 1
    outer loop
      vertex 14.4 24.8 2
      vertex 0 25.8 2
      vertex 8.2 24.8 2
    endloop
  endfacet
  facet normal 0 0 1
    outer loop
      vertex 8.2 24.8 2
      vertex 0 25.8 2
      vertex 7.2 24.8 2
    endloop
  endfacet
  facet normal 0 0 1
    outer loop
      vertex 0 25.8 2
      vertex 1 19.6 2
      vertex 1 24.8 2
    endloop
  endfacet
  facet normal 0 0 1
    outer loop
      vertex 1 19.6 2
      vertex 0 25.8 2
      vertex 1 18.6 2
    endloop
  endfacet
  facet normal 0 0 1
    outer loop
      vertex 1 18.6 2
      vertex 0 25.8 2
      vertex 1 13.4 2
    endloop
  endfacet
  facet normal 0 0 1
    outer loop
      vertex 1 13.4 2
      vertex 0 25.8 2
      vertex 1 12.4 2
    endloop
  endfacet
  facet normal 0 0 1
    outer loop
      vertex 0 0 2
      vertex 1 12.4 2
      vertex 0 25.8 2
    endloop
  endfacet
  facet normal 0 0 1
    outer loop
      vertex 1 12.4 2
      vertex 0 0 2
      vertex 1 7.2 2
    endloop
  endfacet
  facet normal 0 0 1
    outer loop
      vertex 1 7.2 2
      vertex 0 0 2
      vertex 1 6.2 2
    endloop
  endfacet
  facet normal 0 0 1
    outer loop
      vertex 7.2 24.8 2
      vertex 0 25.8 2
      vertex 1 24.8 2
    endloop
  endfacet
  facet normal 0 0 1
    outer loop
      vertex 28.8 18.6 2
      vertex 29.8 25.8 2
      vertex 28.8 19.6 2
    endloop
  endfacet
  facet normal 0 0 1
    outer loop
      vertex 28.8 13.4 2
      vertex 29.8 25.8 2
      vertex 28.8 18.6 2
    endloop
  endfacet
  facet normal 0 0 1
    outer loop
      vertex 29.8 25.8 2
      vertex 28.8 13.4 2
      vertex 29.8 0 2
    endloop
  endfacet
  facet normal -0 0 1
    outer loop
      vertex 28.8 12.4 2
      vertex 29.8 0 2
      vertex 28.8 13.4 2
    endloop
  endfacet
  facet normal -0 0 1
    outer loop
      vertex 28.8 7.2 2
      vertex 29.8 0 2
      vertex 28.8 12.4 2
    endloop
  endfacet
  facet normal -0 0 1
    outer loop
      vertex 28.8 6.2 2
      vertex 29.8 0 2
      vertex 28.8 7.2 2
    endloop
  endfacet
  facet normal -0 0 1
    outer loop
      vertex 28.8 1 2
      vertex 29.8 0 2
      vertex 28.8 6.2 2
    endloop
  endfacet
  facet normal -0 0 1
    outer loop
      vertex 22.6 1 2
      vertex 29.8 0 2
      vertex 28.8 1 2
    endloop
  endfacet
  facet normal 0 0 1
    outer loop
      vertex 22.6 18.6 2
      vertex 21.6 19.6 2
      vertex 21.6 18.6 2
    endloop
  endfacet
  facet normal 0 0 1
    outer loop
      vertex 22.6 13.4 2
      vertex 21.6 13.4 2
      vertex 22.6 12.4 2
    endloop
  endfacet
  facet normal 0 0 1
    outer loop
      vertex 21.6 7.2 2
      vertex 22.6 7.2 2
      vertex 21.6 12.4 2
    endloop
  endfacet
  facet normal 0 0 1
    outer loop
      vertex 22.6 7.2 2
      vertex 21.6 7.2 2
      vertex 22.6 6.2 2
    endloop
  endfacet
  facet normal 0 0 1
    outer loop
      vertex 21.6 6.2 2
      vertex 22.6 6.2 2
      vertex 21.6 7.2 2
    endloop
  endfacet
  facet normal 0 0 1
    outer loop
      vertex 22.6 6.2 2
      vertex 21.6 6.2 2
      vertex 22.6 1 2
    endloop
  endfacet
  facet normal 0 0 1
    outer loop
      vertex 21.6 1 2
      vertex 22.6 1 2
      vertex 21.6 6.2 2
    endloop
  endfacet
  facet normal -0 0 1
    outer loop
      vertex 21.6 1 2
      vertex 29.8 0 2
      vertex 22.6 1 2
    endloop
  endfacet
  facet normal -0 0 1
    outer loop
      vertex 15.4 1 2
      vertex 29.8 0 2
      vertex 21.6 1 2
    endloop
  endfacet
  facet normal 0 0 1
    outer loop
      vertex 15.4 18.6 2
      vertex 14.4 19.6 2
      vertex 14.4 18.6 2
    endloop
  endfacet
  facet normal 0 0 1
    outer loop
      vertex 15.4 13.4 2
      vertex 14.4 13.4 2
      vertex 15.4 12.4 2
    endloop
  endfacet
  facet normal 0 0 1
    outer loop
      vertex 14.4 7.2 2
      vertex 15.4 7.2 2
      vertex 14.4 12.4 2
    endloop
  endfacet
  facet normal 0 0 1
    outer loop
      vertex 15.4 7.2 2
      vertex 14.4 7.2 2
      vertex 15.4 6.2 2
    endloop
  endfacet
  facet normal 0 0 1
    outer loop
      vertex 14.4 6.2 2
      vertex 15.4 6.2 2
      vertex 14.4 7.2 2
    endloop
  endfacet
  facet normal 0 0 1
    outer loop
      vertex 15.4 6.2 2
      vertex 14.4 6.2 2
      vertex 15.4 1 2
    endloop
  endfacet
  facet normal 0 0 1
    outer loop
      vertex 14.4 1 2
      vertex 15.4 1 2
      vertex 14.4 6.2 2
    endloop
  endfacet
  facet normal -0 0 1
    outer loop
      vertex 14.4 1 2
      vertex 29.8 0 2
      vertex 15.4 1 2
    endloop
  endfacet
  facet normal 0 0 1
    outer loop
      vertex 0 0 2
      vertex 14.4 1 2
      vertex 8.2 1 2
    endloop
  endfacet
  facet normal 0 0 1
    outer loop
      vertex 8.2 18.6 2
      vertex 7.2 19.6 2
      vertex 7.2 18.6 2
    endloop
  endfacet
  facet normal 0 0 1
    outer loop
      vertex 8.2 13.4 2
      vertex 7.2 13.4 2
      vertex 8.2 12.4 2
    endloop
  endfacet
  facet normal 0 0 1
    outer loop
      vertex 7.2 7.2 2
      vertex 8.2 7.2 2
      vertex 7.2 12.4 2
    endloop
  endfacet
  facet normal 0 0 1
    outer loop
      vertex 8.2 7.2 2
      vertex 7.2 7.2 2
      vertex 8.2 6.2 2
    endloop
  endfacet
  facet normal 0 0 1
    outer loop
      vertex 7.2 6.2 2
      vertex 8.2 6.2 2
      vertex 7.2 7.2 2
    endloop
  endfacet
  facet normal 0 0 1
    outer loop
      vertex 8.2 6.2 2
      vertex 7.2 6.2 2
      vertex 8.2 1 2
    endloop
  endfacet
  facet normal 0 0 1
    outer loop
      vertex 7.2 1 2
      vertex 8.2 1 2
      vertex 7.2 6.2 2
    endloop
  endfacet
  facet normal 0 0 1
    outer loop
      vertex 0 0 2
      vertex 8.2 1 2
      vertex 7.2 1 2
    endloop
  endfacet
  facet normal 0 0 1
    outer loop
      vertex 0 0 2
      vertex 7.2 1 2
      vertex 1 1 2
    endloop
  endfacet
  facet normal 0 0 1
    outer loop
      vertex 14.4 1 2
      vertex 0 0 2
      vertex 29.8 0 2
    endloop
  endfacet
  facet normal 0 0 1
    outer loop
      vertex 1 6.2 2
      vertex 0 0 2
      vertex 1 1 2
    endloop
  endfacet
  facet normal 0 0 -1
    outer loop
      vertex 0 0 0
      vertex 29.8 25.8 0
      vertex 29.8 0 0
    endloop
  endfacet
  facet normal -0 0 -1
    outer loop
      vertex 29.8 25.8 0
      vertex 0 0 0
      vertex 0 25.8 0
    endloop
  endfacet
  facet normal -1 0 0
    outer loop
      vertex 0 0 0
      vertex 0 25.8 2
      vertex 0 25.8 0
    endloop
  endfacet
  facet normal -1 -0 0
    outer loop
      vertex 0 25.8 2
      vertex 0 0 0
      vertex 0 0 2
    endloop
  endfacet
  facet normal 0 1 -0
    outer loop
      vertex 29.8 25.8 0
      vertex 0 25.8 2
      vertex 29.8 25.8 2
    endloop
  endfacet
  facet normal 0 1 0
    outer loop
      vertex 0 25.8 2
      vertex 29.8 25.8 0
      vertex 0 25.8 0
    endloop
  endfacet
  facet normal 0 -1 0
    outer loop
      vertex 0 0 0
      vertex 29.8 0 2
      vertex 0 0 2
    endloop
  endfacet
  facet normal 0 -1 -0
    outer loop
      vertex 29.8 0 2
      vertex 0 0 0
      vertex 29.8 0 0
    endloop
  endfacet
endsolid OpenSCAD_Model
